<?xml version="1.0" standalone="no"?>
<!DOCTYPE svg PUBLIC "-//W3C//DTD SVG 20010904//EN"
 "http://www.w3.org/TR/2001/REC-SVG-20010904/DTD/svg10.dtd">
<svg version="1.0" xmlns="http://www.w3.org/2000/svg"
 width="512.000000pt" height="512.000000pt" viewBox="0 0 512.000000 512.000000"
 preserveAspectRatio="xMidYMid meet">
<metadata>
Created by potrace 1.14, written by Peter Selinger 2001-2017
</metadata>
<g transform="translate(0.000000,512.000000) scale(0.100000,-0.100000)"
fill="#000000" stroke="none">
<path d="M2325 5109 c-474 -45 -925 -221 -1314 -512 -123 -92 -396 -364 -488
-487 -695 -931 -696 -2174 -2 -3097 92 -122 303 -340 423 -437 643 -522 1497
-701 2299 -481 331 90 663 261 933 481 120 97 331 315 423 437 591 787 685
1825 243 2702 -128 255 -257 430 -477 650 -219 219 -401 353 -655 480 -428
214 -920 308 -1385 264z m503 -890 c650 -71 1016 -419 1097 -1046 l7 -53 -380
0 -380 0 -7 47 c-20 135 -98 292 -175 353 -115 91 -323 131 -492 96 -100 -22
-174 -62 -249 -136 -112 -111 -188 -281 -226 -505 -26 -159 -26 -693 1 -840
54 -296 160 -477 333 -567 110 -58 177 -72 343 -72 164 1 246 16 346 65 110
54 105 38 102 320 l-3 244 -272 3 -273 2 0 270 0 270 665 0 665 0 0 -668 0
-669 -57 -55 c-204 -193 -583 -337 -997 -379 -146 -14 -428 -7 -546 15 -428
78 -755 316 -944 687 -130 255 -186 545 -186 964 0 482 86 821 283 1115 68
102 232 264 340 334 151 100 337 170 532 200 110 17 342 20 473 5z"/>
</g>
</svg>
