<?xml version="1.0" standalone="no"?>
<!DOCTYPE svg PUBLIC "-//W3C//DTD SVG 20010904//EN"
 "http://www.w3.org/TR/2001/REC-SVG-20010904/DTD/svg10.dtd">
<svg version="1.0" xmlns="http://www.w3.org/2000/svg"
 width="512.000000pt" height="512.000000pt" viewBox="0 0 512.000000 512.000000"
 preserveAspectRatio="xMidYMid meet">
<metadata>
Created by potrace 1.14, written by Peter Selinger 2001-2017
</metadata>
<g transform="translate(0.000000,512.000000) scale(0.100000,-0.100000)"
fill="#000000" stroke="none">
<path d="M890 5103 c-166 -26 -300 -76 -427 -158 -215 -140 -370 -365 -429
-620 -18 -76 -19 -158 -19 -1775 l0 -1695 22 -88 c96 -374 383 -656 758 -743
76 -18 158 -19 1770 -19 1612 0 1694 1 1770 19 375 87 662 369 758 743 l22 88
0 1700 0 1700 -22 88 c-87 340 -332 606 -660 716 -156 52 -108 51 -1877 50
-902 -1 -1652 -3 -1666 -6z m1936 -724 c489 -47 838 -243 1033 -578 80 -136
147 -333 171 -499 6 -42 13 -87 16 -99 l4 -23 -414 0 -414 0 -21 94 c-29 125
-87 243 -151 307 -120 120 -360 177 -565 134 -169 -36 -303 -141 -398 -315
-49 -89 -93 -226 -118 -366 -27 -152 -38 -581 -20 -785 43 -492 212 -755 536
-836 100 -24 332 -24 439 1 96 22 155 46 218 89 l48 32 0 278 0 277 -300 0
-300 0 0 295 0 295 730 0 730 0 0 -734 0 -734 -52 -48 c-303 -272 -806 -434
-1351 -434 -470 0 -834 135 -1112 415 -239 239 -377 536 -442 947 -26 166 -26
762 0 928 92 586 362 998 797 1215 262 131 575 180 936 144z"/>
</g>
</svg>
